<svg enable-background="new 0 0 308 87" viewBox="0 0 308 87" xmlns="http://www.w3.org/2000/svg"><path d="m74.7 53.7v-13.5c0-1.3-.5-2.6-1.4-3.5-1-.9-2.1-1.5-3.5-1.5h-13.5c0-4.3 1.5-8.4 4.2-11.7s6.4-5.5 10.6-6.4 8.5-.2 12.2 1.8c3.8 2 6.7 5.2 8.4 9.1 1.2 2.8 1.7 5.8 1.4 8.9-.3 3-1.3 6-3 8.5s-4 4.6-6.6 6c-2.6 1.6-5.7 2.3-8.8 2.3z" fill="#555366"/><path d="m69.8 35.3h-27c-2.7 0-4.9 2.2-4.9 4.9v27.1c0 2.7 2.2 4.9 4.9 4.9h27.1c2.7 0 4.9-2.2 4.9-4.9v-27.1c-.1-2.7-2.3-4.9-5-4.9z" fill="#2c2939"/><path d="m56.3 72.2c0-4.9 1.9-9.6 5.4-13.1s8.2-5.4 13.1-5.4v13.5c0 1.3-.5 2.6-1.4 3.5-1 1-2.1 1.5-3.5 1.5z" fill="#555366"/><path d="m37.8 53.7v-13.5c0-1.3.5-2.6 1.5-3.5 1-1 2.2-1.5 3.5-1.5h13.5c0 4.9-1.9 9.6-5.4 13.1s-8.2 5.4-13.1 5.4z" fill="#555366"/><path d="m135 64.2h8.7l-12.2-33.7h-9.5l-12.2 33.7h8.6l2-6h12.6zm-4.2-12.3h-8.3l4.1-12.3zm28.9 2.3-6.2-16.8h-9.2l10.9 25.9-6.1 13.6h8.8l16.8-39.5h-8.9zm26.2-2.4c0-4.6 2.3-6 6.1-6h2.3v-8.7c-3.6 0-6.5 1.9-8.4 4.8v-4.5h-8.2v26.8h8.2zm38.5-1c0-8.5-6-13.8-13.9-13.8-7.8 0-13.9 5.3-13.9 13.8s6 13.8 13.8 13.8 14-5.3 14-13.8zm-19.5 0c0-4.6 2.6-6.7 5.6-6.7 2.9 0 5.6 2.1 5.6 6.7 0 4.5-2.7 6.7-5.7 6.7s-5.5-2.2-5.5-6.7zm37.3 1.1c0 8.7 5.7 12.7 12.6 12.7s12.6-4 12.6-12.7v-21.2h-4.4v21.2c0 6.1-3.3 8.8-8.2 8.8s-8.3-2.6-8.3-8.8v-21.2h-4.4zm32.5 12.3h4.4v-33.5h-4.4z" fill="#2c2939"/></svg>