<svg enable-background="new 0 0 231 95" viewBox="0 0 231 95" xmlns="http://www.w3.org/2000/svg"><g fill="#2c2939"><path d="m88.9 56.5h-3.4v-18.5h6.9c.8 0 1.7.2 2.4.5s1.3.8 1.9 1.3c.5.5.9 1.2 1.2 1.9.5 1.2.6 2.5.2 3.8-.1.5-.4 1-.6 1.5-.6 1-1.4 1.7-2.5 2.2.9 1.2 1.8 2.4 2.7 3.7.9 1.2 1.8 2.4 2.7 3.6h-2.6c-.2 0-.4 0-.6-.1-.3-.1-.5-.2-.8-.4s-.6-.4-.8-.6c-.3-.3-.6-.6-.8-1l-3.4-4.5h-2.5zm3.7-10.1c.3 0 .6-.1.9-.2s.6-.3.8-.6c.2-.2.4-.5.5-.8s.2-.6.2-.9-.1-.7-.2-1-.3-.6-.5-.8-.5-.4-.8-.6c-.3-.1-.6-.2-.9-.2h-3.7v5z"/><path d="m109.5 38h3.1l8.1 18.5h-2.1c-.5 0-.9-.1-1.3-.4-.4-.2-.7-.6-.9-1l-1.1-2.5h-8.4l-1.1 2.5c-.1.2-.2.4-.4.6s-.3.3-.5.4-.4.2-.6.3-.5.1-.7.1h-2.1zm-1.2 11.2h5.4l-2.4-5.6c-.1-.2-.2-.5-.2-.7s-.1-.4-.1-.5c0 .2 0 .3-.1.5 0 .2-.1.5-.2.7z"/><path d="m130.3 56.5h-3.4v-7.8c0-.3-.1-.5-.2-.7-.1-.3-.3-.5-.5-.7l-6.8-9.2h2.6c.5 0 1 .1 1.5.3.4.2.8.6 1.1 1l3.6 4.9c.1.1.2.3.2.5s.1.3.1.3c0-.1 0-.2.1-.3.1-.2.1-.3.3-.5l3.6-4.9c.3-.4.6-.8 1.1-1s1-.3 1.5-.3h2.6l-6.8 9.2c-.1.1-.2.3-.3.4s-.1.2-.2.3-.1.2-.1.3v.4z"/><path d="m156.4 47.6v7.1c-.4.4-.9.7-1.4 1s-1.1.5-1.6.6c-.6.2-1.2.3-1.8.3-.6.1-1.3.1-1.9.1-1.3 0-2.5-.2-3.7-.7-1.1-.5-2.2-1.2-3-2-.9-.9-1.6-1.9-2-3-.5-1.2-.7-2.4-.7-3.7s.3-2.5.7-3.7c.5-1.1 1.2-2.1 2-3 .9-.9 1.9-1.5 3-2 2.3-1 5-1 7.3 0 1.1.5 2.1 1.1 3 1.9l-.1.1c-.2.2-.3.3-.5.4s-.4.1-.6.1c-.3 0-.6-.1-.8-.3-.6-.4-1.3-.8-2.1-1s-1.6-.4-2.4-.4c-.7 0-1.4.1-2.1.3s-1.3.4-1.9.8c-.6.3-1.1.8-1.6 1.2-.5.5-.9 1-1.2 1.6s-.6 1.2-.8 1.9-.3 1.4-.3 2.1.1 1.4.3 2.1c.4 1.3 1.1 2.5 2.1 3.4.5.5 1 .9 1.6 1.2s1.2.6 1.9.8 1.4.3 2.1.3c.9 0 1.8-.1 2.6-.4.8-.2 1.6-.6 2.4-1.1v-4.4h-1.6c-.2 0-.4 0-.6-.1s-.4-.2-.5-.4c-.1-.1-.2-.3-.3-.5s-.1-.4-.1-.6v-.1z"/><path d="m163.5 56.5h-1.6v-18.5h6.6c.7 0 1.4.1 2.1.4.6.3 1.2.6 1.7 1.1s.9 1 1.1 1.6c.3.6.4 1.3.4 2 0 .6-.1 1.3-.3 1.8-.2.6-.5 1.1-.9 1.6s-.9.9-1.4 1.2-1.1.5-1.8.6l6.2 8.1h-.8c-.9 0-1.6-.3-2-1l-5.4-7.2h-3.8v8.3zm0-16.9v7.1h4.9c.5 0 1-.1 1.4-.3s.8-.4 1.1-.8c.3-.3.6-.7.8-1.1s.3-.9.3-1.4-.1-.9-.3-1.4c-.4-.9-1.1-1.5-1.9-1.9-.4-.2-.9-.3-1.4-.3h-4.9z"/><path d="m181.2 56.5h-1.5v-18.5h1.5z"/><path d="m187.6 56.5v-18.5h6.8c1.6 0 3.2.4 4.7 1.3 1.4.8 2.5 1.9 3.3 3.3s1.3 3 1.3 4.7c0 1.6-.4 3.2-1.3 4.7-.4.7-.9 1.3-1.4 1.9-1.1 1.1-2.5 1.9-4.1 2.4-.8.2-1.6.3-2.5.3h-6.8zm6.8-1.7c1 0 2-.2 3-.6.9-.4 1.7-.9 2.4-1.6s1.3-1.5 1.6-2.4c.4-.9.6-1.9.6-3 0-1-.2-2-.6-3-.4-.9-.9-1.7-1.6-2.4s-1.5-1.2-2.4-1.6-2-.6-3-.6h-5.2v15.2z"/><path d="m215.3 40.4c-.2-.1-.4-.3-.5-.4-.3-.2-.7-.4-1.1-.5-.3-.1-.6-.1-.9-.1-.5 0-1 .1-1.4.3s-.8.4-1.2.7c-.3.3-.6.6-.8 1s-.3.8-.3 1.2.1.8.2 1.2c.1.3.4.6.6.8.4.3.8.5 1.2.7.5.2 1.1.4 1.8.7.4.1.7.3 1.1.4.3.1.6.2.9.4.3.1.6.3.8.4.3.1.5.3.7.5.6.4 1 1 1.3 1.7s.4 1.5.4 2.2c0 .8-.2 1.5-.5 2.2-.3.6-.7 1.2-1.3 1.6-.6.5-1.2.8-1.9 1-.8.2-1.5.4-2.3.4-1.6 0-3-.5-4.1-1.4-.3-.3-.5-.5-.8-.8-.2-.2-.4-.5-.5-.7l.2-.1c.2-.2.5-.2.8-.2.2 0 .4 0 .6.1s.4.2.5.3c.3.3.6.5 1 .8.3.2.5.3.8.4.2.1.5.1.7.1h.7c.5 0 1 0 1.6-.2.5-.1 1-.3 1.4-.6s.8-.7 1-1.1c.3-.5.4-1.1.4-1.6 0-.6-.1-1.2-.3-1.7-.2-.4-.5-.8-.9-1-.4-.3-.8-.5-1.3-.7s-1-.4-1.6-.6c-.7-.3-1.4-.6-2-.8s-1.1-.5-1.5-.9c-.4-.3-.8-.8-1-1.3-.3-.6-.4-1.3-.4-1.9 0-.7.2-1.4.5-2s.7-1.1 1.2-1.5 1.1-.7 1.7-1c.6-.2 1.3-.3 1.9-.3.5 0 1 .1 1.5.2.4.1.8.3 1.2.5s.7.5 1 .7c.3.3.6.5.8.8l-.4.3c-.1.1-.2.1-.4.2s-.3.1-.5.1c-.1-.2-.4-.3-.6-.5z"/><path d="m80.1 46.6v7.7c-.4.4-1 .8-1.5 1.1s-1.1.5-1.7.7-1.2.3-1.9.4c-.6.1-1.3.1-1.9.1-1.3 0-2.5-.2-3.7-.7-1.1-.5-2.1-1.2-3-2-.9-.9-1.6-1.9-2-3-.5-1.2-.8-2.4-.7-3.7 0-1.7.4-3.3 1.3-4.8.4-.7.9-1.3 1.5-1.9 1.2-1.2 2.6-2 4.2-2.4.8-.2 1.7-.3 2.5-.3.7 0 1.4.1 2 .2.7.2 1.3.4 1.9.7s1.2.7 1.8 1.1 1.1.9 1.6 1.4l-.9.8c-.2.2-.5.4-.8.6-.3.1-.6.2-1 .2-.5 0-.9-.1-1.3-.4-.5-.3-1-.6-1.6-.8s-1.2-.3-1.8-.3c-.8 0-1.6.2-2.4.5-1.5.6-2.6 1.8-3.3 3.2-.3.7-.5 1.5-.5 2.3s.2 1.6.5 2.4c.5 1.1 1.3 2 2.3 2.7s2.2 1 3.4 1c.4 0 .8 0 1.2-.1s.8-.1 1.1-.2c.4-.1.8-.3 1.1-.5v-2.6h-1.1c-.3 0-.6-.1-.9-.2s-.5-.4-.7-.7c-.2-.4-.3-.9-.2-1.4v-1z"/><path d="m56 50.2c1.5-11.9-6.9-22.7-18.7-24.2-11.9-1.5-22.7 6.9-24.3 18.8-1.5 11.8 6.9 22.7 18.8 24.2 11.8 1.5 22.7-6.9 24.2-18.8z"/></g><path d="m35.3 47.2v2.1h4.5v3.5h-4.5c-.1 0-.2 0-.4 0-.7 0-1.3-.1-2-.4-.9-.4-1.7-1-2.2-1.8-.7-1-1-2.2-.8-3.4.1-1.2.7-2.3 1.6-3.1s2-1.3 3.2-1.3 2.4.4 3.3 1.1h9c-.1-.4-.2-.7-.4-1-.9-2.1-2.3-3.9-4.2-5.3s-4-2.2-6.3-2.4-4.6.2-6.6 1.2c-2.1 1-3.8 2.5-5.1 4.4s-2 4.1-2.1 6.4.4 4.6 1.5 6.6 2.7 3.7 4.6 4.9c2 1.2 4.2 1.8 6.5 1.8h12.6v-13.3zm4.6 11h-4.2c-.2 0-.3 0-.5 0h-.4c-1.8 0-3.6-.5-5.2-1.4s-2.9-2.2-3.8-3.8-1.4-3.3-1.5-5.2c0-1.8.4-3.6 1.3-5.2s2.1-2.9 3.6-3.9 3.3-1.5 5.1-1.6 3.6.3 5.2 1.1 3 2 4 3.5h-4.9c-.9-.6-2-1-3.1-1.1s-2.2 0-3.2.4-2 1-2.7 1.8c-.8.8-1.3 1.8-1.6 2.8-.3 1.1-.4 2.2-.2 3.3s.6 2.1 1.3 3 1.5 1.6 2.5 2.1 2.1.8 3.2.8h4.9v3.4zm5.6.1h-3.5v-3.4h3.5zm0-5.6h-3.5v-3.5h3.5z" fill="#262626"/><path d="m34.7 46.5v2.1h4.5v3.4h-4.5c-.1 0-.2 0-.4 0-.8 0-1.6-.2-2.4-.6-.7-.4-1.3-.9-1.8-1.6s-.7-1.5-.8-2.3 0-1.7.4-2.4c.4-.9 1-1.7 1.8-2.2.7-.5 1.5-.8 2.3-.8s1.7 0 2.4.4c.4.2.9.4 1.2.7h8.9c-.1-.4-.2-.7-.4-1-.9-2.1-2.3-3.9-4.2-5.3-1.8-1.3-4-2.2-6.3-2.4s-4.6.2-6.6 1.2c-2.1 1-3.8 2.5-5.1 4.4s-2 4.1-2.1 6.4.4 4.5 1.5 6.6c1.1 2 2.7 3.7 4.6 4.9s4.2 1.8 6.5 1.8h12.6v-13.3zm4.5 11.1h-4.2c-.2 0-.3 0-.5 0h-.4c-1.8 0-3.6-.5-5.2-1.4s-2.9-2.2-3.8-3.8-1.4-3.3-1.5-5.2c0-1.8.4-3.6 1.3-5.2s2.1-2.9 3.6-3.9 3.3-1.5 5.1-1.6 3.6.3 5.2 1.1 3 2 4 3.5h-4.9c-.9-.6-2-1-3.1-1.1s-2.2 0-3.2.4-2 1-2.7 1.8c-.5.8-1 1.8-1.4 2.8s-.4 2.2-.2 3.3.6 2.1 1.3 3 1.5 1.6 2.5 2.1 2.1.7 3.2.7h4.9zm5.7 0h-3.5v-3.5h3.5zm0-5.5h-3.5v-3.5h3.5z" fill="#fff"/><path d="m39.2 54.1h2.1v1h-2.1z" fill="#999"/><path d="m37.6 48.6h1.7v1h2.1v-1h1.5z" fill="#999"/></svg>