<svg enable-background="new 0 0 268 64" viewBox="0 0 268 64" xmlns="http://www.w3.org/2000/svg" xmlns:xlink="http://www.w3.org/1999/xlink"><clipPath id="a"><path d="m92.3 16.7h169.3v30.6h-169.3z"/></clipPath><g fill="none" stroke="#2c2939" stroke-miterlimit="10" stroke-width="6"><path d="m39.9 32c4.3 5.8 8.7 11.6 17.2 11.6 6.6 0 11.9-5.2 11.9-11.6"/><path d="m10.8 32c0-6.4 5.3-11.6 11.9-11.6 8.6 0 13 5.8 17.2 11.6"/><path d="m69 32c0-6.4-5.3-11.6-11.9-11.6-8.6 0-13 5.8-17.2 11.6-4.3 5.8-8.7 11.6-17.2 11.6-6.5 0-11.9-5.2-11.9-11.6"/></g><g clip-path="url(#a)"><path d="m92.3 47.2v-30.5h4v26.5h12.5v4zm20.5-24.1v-4.2h4v4.2zm0 24.1v-22h4v22zm54-24.1v-4.2h4v4.2zm0 24.1v-22h4v22zm-27.6-14c-.1-.9-.3-1.8-.6-2.7s-.8-1.8-1.4-2.6-1.4-1.5-2.4-1.9c-1-.5-2.2-.7-3.6-.7-1.9 0-3.4.4-4.7 1.3-.6.4-1.1.9-1.6 1.4v-2.7h-4v22h4v-11h.1c0-1.3.1-2.4.4-3.3.2-.9.6-1.7 1.1-2.2s1.1-.9 1.7-1.2 1.3-.4 2.1-.4c1.1 0 2 .3 2.7.7.7.5 1.2 1.1 1.6 1.9s.6 1.6.7 2.5.2 1.8.2 2.7v10.3h4.1v-11.8c-.2-.6-.2-1.4-.4-2.3zm101 0c-.1-.9-.3-1.8-.6-2.7s-.8-1.8-1.4-2.6-1.4-1.5-2.4-1.9c-1-.5-2.2-.7-3.6-.7-1.9 0-3.4.4-4.7 1.3-.6.4-1.1.9-1.6 1.4v-2.7h-4v22h4v-11h.1c0-1.3.1-2.4.4-3.3.2-.9.6-1.7 1.1-2.2s1.1-.9 1.7-1.2 1.3-.4 2.1-.4c1.1 0 2 .3 2.7.7.7.5 1.2 1.1 1.6 1.9s.6 1.6.7 2.5.2 1.8.2 2.7v10.3h4.1v-11.8c-.2-.6-.3-1.4-.4-2.3zm-79 4.1h2c.1-2.5-.1-4.6-.9-6.5-.7-1.8-1.9-3.2-3.3-4.2-1.5-1-3.3-1.5-5.4-1.5-2 0-3.8.5-5.3 1.4s-2.7 2.2-3.6 3.9-1.2 3.6-1.2 5.9c0 2.1.4 4 1.3 5.7s2.1 2.9 3.6 3.8c1.6.9 3.4 1.4 5.4 1.4s3.8-.5 5.5-1.5c1.6-1 2.9-2.5 3.7-4.3l-3.9-1.3c-.5 1.1-1.2 1.9-2.1 2.5s-2 .9-3.2.9c-1.9 0-3.4-.6-4.4-1.9-.8-1.1-1.3-2.5-1.4-4.2h11.4 1.8zm-12-6.6c1-1.3 2.5-1.9 4.5-1.9 1.8 0 3.2.6 4.1 1.7.6.8 1.1 2 1.2 3.4h-11.2c.3-1.3.8-2.3 1.4-3.2zm35.2 16.5c-2.1 0-3.9-.5-5.4-1.5-1.5-.9-2.6-2.3-3.4-3.9-.8-1.7-1.2-3.6-1.2-5.6 0-2.1.4-4 1.2-5.7s1.9-3 3.4-3.9 3.3-1.4 5.4-1.4c2.2 0 4.2.6 5.8 1.7s2.7 2.7 3.2 4.6l-4 1.1c-.4-1.2-1.1-2.1-1.9-2.7-.9-.7-1.9-1-3.1-1-1.3 0-2.4.3-3.2.9-.9.6-1.5 1.5-1.9 2.6s-.6 2.3-.6 3.7c0 2.1.5 3.9 1.5 5.2.9 1.3 2.4 2 4.3 2 1.3 0 2.3-.3 3.1-.9s1.4-1.5 1.8-2.6l4.1 1c-.7 2.1-1.8 3.6-3.4 4.7-1.5 1.2-3.5 1.7-5.7 1.7zm23.2 0c-2.1 0-3.9-.5-5.4-1.4s-2.7-2.3-3.5-3.9c-.8-1.7-1.2-3.6-1.2-5.7 0-2.2.4-4.1 1.2-5.8.9-1.7 2-2.9 3.6-3.8 1.5-.9 3.3-1.4 5.3-1.4 2.1 0 3.9.5 5.4 1.4s2.7 2.3 3.6 3.9c.8 1.7 1.2 3.6 1.2 5.7 0 2.2-.4 4.1-1.2 5.8s-2 2.9-3.6 3.9c-1.6.8-3.3 1.3-5.4 1.3zm0-3.8c2 0 3.4-.7 4.4-2s1.5-3 1.5-5.2-.5-3.9-1.5-5.2-2.4-2-4.4-2c-1.4 0-2.4.3-3.3.9s-1.5 1.5-1.9 2.5c-.4 1.1-.6 2.3-.6 3.7 0 2.2.5 3.9 1.5 5.2.9 1.5 2.4 2.1 4.3 2.1zm45.8 3.8c-2.5 0-4.6-.5-6.2-1.7-1.6-1.1-2.6-2.7-2.9-4.7l4.1-.7c.2 1.1.9 1.9 1.7 2.6.9.6 2.1.9 3.4.9 1.2 0 2.2-.3 2.9-.8s1.1-1.2 1.1-2.1c0-.5-.1-.9-.4-1.3s-.7-.7-1.6-.9c-.8-.3-2-.7-3.6-1.1-1.7-.5-3.2-1-4.2-1.5s-1.8-1.2-2.2-1.9-.7-1.6-.7-2.6c0-1.3.3-2.4 1-3.3s1.6-1.7 2.8-2.2 2.6-.8 4.2-.8 3 .3 4.2.7c1.2.5 2.2 1.2 3 2.1.7.9 1.2 2 1.4 3.2l-4.1.7c-.1-1-.6-1.8-1.4-2.4s-1.8-.9-3.1-.9c-1.2-.1-2.2.1-2.9.6s-1.1 1.1-1.1 1.9c0 .5.1.9.4 1.2s.9.7 1.7.9c.8.3 2.1.7 3.7 1.1 1.7.5 3.1.9 4.1 1.5 1 .5 1.7 1.2 2.2 1.9.4.7.7 1.7.7 2.7 0 2.1-.7 3.7-2.2 4.8-1.4 1.5-3.4 2.1-6 2.1z" fill="#2c2939"/></g></svg>