<svg enable-background="new 0 0 231 95" viewBox="0 0 231 95" xmlns="http://www.w3.org/2000/svg"><g fill="#2c2939"><path d="m190.4 52.6 14.1-17h-6.9l-12.6 15.3v-.1l-5.7 6.9-1.2 1.5c0 .1-.1.1-.1.2l-2.1 2.6c-.4.4-.8.7-1.3 1-1.9 1.3-4.2 2-6.6 2v.1c-1.6 0-3.1-.3-4.6-.9-2.1-.9-3.9-2.4-5.2-4.3-1.8-2.6-2.4-5.8-1.8-8.9s2.4-5.8 5-7.6c2-1.4 4.4-2.1 6.8-2 2.4 0 4.8.8 6.7 2.3l3.1-4.3c-2.4-1.7-5.1-2.8-8.1-3.2-2.9-.3-5.9.1-8.6 1.2-3.1 1.3-5.7 3.5-7.5 6.3-1.9 2.9-2.9 6.2-2.9 9.7v.2h-.1c0 1.9-.5 3.9-1.4 5.6s-2.2 3.2-3.8 4.3-3.5 1.8-5.4 2c-2 .2-3.9-.1-5.7-.9-2.1-.9-3.9-2.4-5.2-4.3-.6-.9-1.1-1.9-1.4-2.9-.2-.1-.5-.2-.7-.4-1.4-.8-2.8-1.7-4-2.9-.5-.5-1-1-1.4-1.6v1c0 1.9-.5 3.9-1.4 5.6s-2.2 3.2-3.8 4.3-3.5 1.8-5.4 2c-2 .2-3.9-.1-5.7-.9-2.1-.9-3.9-2.4-5.2-4.3-1.8-2.6-2.4-5.8-1.8-8.9s2.4-5.8 5-7.6c1.6-1.1 3.5-1.8 5.4-2 2-.2 3.9.1 5.7.9 2.1.9 3.9 2.4 5.2 4.3 0 0 .1.1.1.1 0 .1.1.2.1.2.1.3.4.8.7 1.5l.1.2c0 .1.1.1.1.2.4.7.9 1.3 1.3 1.9 0 0 .1.1.1.1.5.7 1.1 1.3 1.7 1.9.1.1.2.2.3.3l.1.1c.7.7 1.5 1.2 2.3 1.8 1 .6 2.1 1.1 3.2 1.5 1.3.4 2.6.6 3.9.6h.4c2.1 0 4.1-.3 6.1-1 1.3-.5 2.5-1.1 3.6-1.9 1.5-1 2.7-2.3 3.8-3.8.9-1.3 1.6-2.6 2.2-4 .4-.9.6-1.9.6-2.9 0-.5-.1-1-.2-1.5-.2-.8-.5-1.5-1-2.1-.5-.7-1.2-1.3-1.9-1.7-.3-.2-.7-.4-1.1-.6-2.2-1.1-4.5-1.6-7-1.7-2.4-.1-4.8.4-7 1.4-2 .9-3.8 2.1-5.3 3.6v-16.7h-5.3v14.5c.3.3.7.7 1 1 1.1 1.2 2.1 2.6 3 4.1.7 1.2 1.5 2.4 2.3 3.5.1.2.3.3.4.5.9-1.8 2.2-3.3 3.9-4.5 1.8-1.2 4-2 6.2-2 2.2-.1 4.4.5 6.3 1.6.1.1.2.2.3.3 0 .1.1.1.1.2v.3c0 .3-.1.6-.2.9-.4.9-.8 1.8-1.3 2.6-.4.6-.9 1.3-1.5 1.8-.9.9-2 1.6-3.1 2.1-1.5.6-3.1.9-4.8.9h-.3c-.7 0-1.5-.1-2.2-.3-1.1-.3-2.2-.9-3.1-1.6-.3-.2-.6-.5-.9-.8-.1-.1-.3-.3-.4-.4-.7-.7-1.3-1.5-1.8-2.3-.3-.5-.7-1-.8-1.3-.1-.2-.2-.4-.2-.4-.8-1.5-1.8-2.8-2.9-4.1 0 0 0 0-.1-.1-.7-.6-1.4-1.2-2.2-1.8-2.3-1.6-5.1-2.6-7.9-2.9s-5.7.2-8.3 1.3c-3.1 1.3-5.7 3.5-7.5 6.3-2.5 3.8-3.5 8.5-2.6 13s3.5 8.5 7.2 11.1c2.3 1.6 5.1 2.6 7.9 2.9s5.7-.2 8.3-1.3c3.1-1.3 5.7-3.5 7.5-6.3.1-.2.2-.4.3-.5 1.3 2.1 2.9 3.8 4.9 5.2 2.3 1.6 5.1 2.6 7.9 2.9s5.7-.2 8.3-1.3c3.1-1.3 5.7-3.5 7.5-6.3.1-.2.3-.4.4-.6 1.3 2 2.9 3.7 4.9 5.1 2.3 1.6 5.1 2.6 7.9 2.9s5.7-.2 8.3-1.3c1.9-.8 3.6-2 5.1-3.4v4.8h5.3v-11.5l2-2.4 10.9 13.7h6.8zm-5.4-28.2h-5.3v28.7c0 .8-.1 1.5-.2 2.3l5.5-6.7z"/><path d="m56.7 36.7v14.1c0 6.6-4 10.5-10 10.5s-10.2-4-10.2-10.5v-26.5h-10.1v26.4c0 12 7.9 19.5 20.3 19.5 12.3 0 20.1-7.5 20.1-19.5v-26.4h-.2c-2.7.9-5 2.5-6.8 4.7-1.7 2.2-2.8 4.9-3.1 7.7z"/><path d="m75.5 24.3h-.2v45.4h10.1v-33c-.1-5.1-4.6-10.6-9.9-12.4z"/><path d="m56.7 36.7v14.1.4c0 4.5-1.6 8.8-4.6 12.2s-7.1 5.6-11.5 6.1c2 .5 4 .7 6.1.7 12.3 0 20.1-7.5 20.1-19.5v-26.4h-.2c-2.7.9-5 2.5-6.8 4.7-1.7 2.2-2.8 4.9-3.1 7.7"/></g></svg>